#!OML:ASF H:\Terrain\Patient Classification 1\PLAYGROUND\JustinFriday\JustinFriday.ASF
:FULLY-SPECIFIED
:DEGREES
1327
root -11.938 30.3074 -7.69472 193.268 79.6327 -105.554
lowerback 41.8858 -3.03093 1.88917
upperback 14.0495 -0.84842 -2.51177
thorax -4.36516 0.843376 -3.3902
lowerneck 4.78786 -2.1813 -4.20784
upperneck 27.8068 -3.01878 6.92503
head 7.96266 -0.733803 2.98904
rclavicle 1.43125e-014 2.06736e-014
rhumerus 11.7359 2.21845 -70.8929
rradius 125.024
rwrist 11.4252
rhand 2.87425 -42.5536
rfingers 7.12502
rthumb 28.3404 -70.4289
lclavicle 1.43125e-014 2.06736e-014
lhumerus 20.4963 -17.2778 56.9788
lradius 113.183
lwrist -15.3849
lhand 20.2855 11.6161
lfingers 7.12502
lthumb 44.801 35.1936
rfemur -62.9239 -14.8725 27.6747
rtibia 128.106
rfoot 2.57301 -8.67621
rtoes 22.1812
lfemur -73.7289 71.2894 21.1487
ltibia 157.416
lfoot 1.36492 -47.4975
ltoes 35.6874
1328
root -11.8391 30.2951 -7.68945 190.358 79.4022 -108.511
lowerback 41.6841 -3.67404 3.02996
upperback 13.9161 -1.30976 -3.64286
thorax -4.56046 0.694931 -5.01133
lowerneck 5.40744 -1.82977 -5.20901
upperneck 27.4489 -2.98772 9.24889
head 7.75558 -0.637591 3.95944
rclavicle -1.86858e-014 -8.5875e-014
rhumerus 10.443 2.20937 -72.6779
rradius 125.498
rwrist 12.7748
rhand 2.01048 -42.156
rfingers 7.12502
rthumb 27.5146 -70.1655
lclavicle -1.86858e-014 -8.5875e-014
lhumerus 20.4407 -17.2105 55.3588
lradius 114.138
lwrist -15.153
lhand 19.286 10.9277
lfingers 7.12502
lthumb 43.8694 34.8591
rfemur -61.8832 -17.9788 26.577
rtibia 126.926
rfoot -0.173985 -6.83918
rtoes 25.0031
lfemur -63.5895 76.4572 28.593
ltibia 158.423
lfoot -19.6296 -43.9661
ltoes 20.5864
1329
root -11.7939 30.3215 -7.6656 190.035 79.4852 -109.155
lowerback 41.454 -3.07327 1.88567
upperback 13.5304 -1.07335 -3.00016
thorax -4.84975 0.686738 -3.82764
lowerneck 5.84739 -2.10607 -5.10376
upperneck 27.1836 -3.17369 8.2222
head 7.59895 -0.81743 3.5728
rclavicle 6.75868e-015 -9.54166e-015
rhumerus 9.67446 3.33313 -72.5431
rradius 125.909
rwrist 13.577
rhand 1.50854 -41.7844
rfingers 7.12502
rthumb 27.0345 -69.8694
lclavicle 6.75868e-015 -9.54166e-015
lhumerus 19.114 -16.065 57.1036
lradius 114.384
lwrist -16.2414
lhand 20.1534 7.75866
lfingers 7.12502
lthumb 44.678 31.384
rfemur -60.4308 -16.3473 26.2967
rtibia 125.048
rfoot -2.60984 -7.08989
rtoes 28.1878
lfemur -62.1381 76.9644 30.7072
ltibia 158.41
lfoot -20.7314 -44.2537
ltoes 17.9418
1330
root -11.7474 30.3605 -7.66297 185.881 79.822 -113.244
lowerback 41.32 -2.89466 1.39456
upperback 13.4086 -1.10529 -3.3761
thorax -4.95172 0.658638 -3.96378
lowerneck 5.52616 -2.2038 -5.13671
upperneck 27.9589 -3.31545 8.32674
head 7.93443 -0.844249 3.6298
rclavicle 2.50469e-014 -7.95139e-015
rhumerus 8.80253 3.52518 -72.9871
rradius 126.381
rwrist 14.1761
rhand 1.1462 -41.5099
rfingers 7.12502
rthumb 26.6878 -69.6483
lclavicle 2.50469e-014 -7.95139e-015
lhumerus 18.1259 -15.4578 59.1149
lradius 114.539
lwrist -16.0556
lhand 22.2148 3.85368
lfingers 7.12502
lthumb 46.5925 26.6974
rfemur -58.3055 -14.6963 25.2302
rtibia 123.126
rfoot -4.07381 -7.25398
rtoes 27.1496
lfemur -53.6636 77.7002 37.7497
ltibia 158.287
lfoot -29.5909 -40.6994
ltoes 4.02144
1331
root -11.6637 30.3661 -7.6678 184.141 80.0653 -115.127
lowerback 40.4864 -3.12581 2.01605
upperback 13.5896 -1.22623 -4.12199
thorax -4.56389 0.653118 -5.0336
lowerneck 4.77044 -2.12949 -5.49846
upperneck 28.9923 -3.39877 9.3096
head 8.44825 -0.784876 4.06498
rclavicle 1.63003e-014 8.26944e-014
rhumerus 8.20182 3.06037 -73.6583
rradius 126.863
rwrist 14.5778
rhand 0.881844 -41.2886
rfingers 7.12502
rthumb 26.4348 -69.4653
lclavicle 1.63003e-014 8.26944e-014
lhumerus 17.7296 -16.7278 58.7975
lradius 115.276
lwrist -16.6426
lhand 19.5052 5.00611
lfingers 7.12502
lthumb 44.0739 28.8614
rfemur -56.9703 -16.6235 24.9821
rtibia 121.512
rfoot -4.3381 -6.69416
rtoes 20.2174
lfemur -48.5805 78.1918 43.0213
ltibia 158.508
lfoot -27.3066 -41.7892
ltoes 7.95051
1332
root -11.6293 30.3701 -7.62557 192.944 79.6547 -106.942
lowerback 39.6187 -3.48141 3.66332
upperback 13.3774 -1.15877 -4.00786
thorax -4.55974 0.678215 -5.7968
lowerneck 4.64276 -2.01375 -6.16002
upperneck 29.5223 -3.3931 10.1579
head 8.67582 -0.751161 4.50676
rclavicle -3.29983e-014 -6.36111e-015
rhumerus 7.62784 2.93052 -74.0852
rradius 127.235
rwrist 14.9872
rhand 0.619615 -40.9691
rfingers 7.12502
rthumb 26.1837 -69.1832
lclavicle -3.29983e-014 -6.36111e-015
lhumerus 16.7073 -18.1212 59.1354
lradius 116.14
lwrist -18.519
lhand 16.1306 7.10331
lfingers 7.12502
lthumb 40.9148 32.0467
rfemur -56.9462 -14.5464 26.8854
rtibia 119.494
rfoot -4.85328 -7.446
rtoes 27.2588
lfemur -61.257 77.3696 34.2303
ltibia 158.447
lfoot -20.4992 -44.3539
ltoes 11.6837
1333
root -11.5849 30.4024 -7.59352 191.805 79.5489 -108.409
lowerback 38.9092 -2.99731 2.98189
upperback 13.2597 -0.8989 -4.25793
thorax -4.43933 0.766897 -5.80673
lowerneck 5.11058 -2.18414 -4.12654
upperneck 29.4687 -3.53562 9.61869
head 8.55202 -0.641854 3.94562
rclavicle -4.21423e-014 4.92986e-014
rhumerus 6.65742 2.6288 -75.2442
rradius 127.64
rwrist 15.7338
rhand 0.348086 -40.2678
rfingers 7.12502
rthumb 25.9237 -68.5202
lclavicle -4.21423e-014 4.92986e-014
lhumerus 15.8692 -19.3195 60.087
lradius 116.457
lwrist -21.3863
lhand 14.8435 7.11587
lfingers 7.12502
lthumb 39.7043 32.4304
rfemur -56.1261 -13.8474 26.2552
rtibia 117.726
rfoot -5.04342 -7.26454
rtoes 32.2237
lfemur -61.6361 77.3465 33.6257
ltibia 158.177
lfoot -19.3994 -44.0898
ltoes 9.61436
1334
root -11.5007 30.4156 -7.57716 188.851 79.561 -111.569
lowerback 38.4529 -2.57164 1.77511
upperback 13.0553 -0.859875 -3.84513
thorax -4.47507 0.694358 -4.74785
lowerneck 5.8329 -1.91187 -4.54922
upperneck 29.0676 -3.04079 9.23429
head 8.24591 -0.510423 3.89871
rclavicle -6.36111e-015 -2.8625e-014
rhumerus 6.007 3.48852 -75.0754
rradius 128.006
rwrist 16.294
rhand 0.668775 -39.1734
rfingers 7.12502
rthumb 26.2308 -67.3805
lclavicle -6.36111e-015 -2.8625e-014
lhumerus 14.4021 -18.4808 63.3203
lradius 116.299
lwrist -23.3731
lhand 16.4815 3.60248
lfingers 7.12502
lthumb 41.2443 28.4407
rfemur -54.3358 -13.9787 25.8532
rtibia 115.836
rfoot -5.05667 -7.49511
rtoes 31.0688
lfemur -61.4205 77.2169 33.4603
ltibia 158.049
lfoot -17.2664 -44.4139
ltoes 8.27287
1335
root -11.4324 30.4393 -7.55708 189.808 79.5597 -111.125
lowerback 37.7669 -2.59604 1.6139
upperback 12.7691 -1.01907 -3.09872
thorax -4.5496 0.524786 -3.81241
lowerneck 6.50377 -1.53666 -7.20826
upperneck 28.1122 -2.56861 9.39373
head 7.79138 -0.606056 4.41223
rclavicle 1.55052e-014 6.36111e-014
rhumerus 5.76779 4.78491 -74.0563
rradius 128.299
rwrist 16.5436
rhand 0.983004 -38.4103
rfingers 7.12502
rthumb 26.5316 -66.5724
lclavicle 1.55052e-014 6.36111e-014
lhumerus 13.5388 -17.0229 63.8367
lradius 116.88
lwrist -24.7426
lhand 14.8211 2.57906
lfingers 7.12502
lthumb 39.6832 27.8999
rfemur -53.6638 -13.9427 26.7899
rtibia 113.782
rfoot -2.54251 -8.96431
rtoes 18.7924
lfemur -65.9514 76.8521 29.5864
ltibia 157.737
lfoot -10.6954 -45.5121
ltoes 11.1358
1336
root -11.3611 30.4515 -7.53002 189.661 79.464 -111.66
lowerback 36.6996 -2.5283 2.00694
upperback 12.9272 -0.890132 -3.92822
thorax -4.19148 0.62141 -4.93399
lowerneck 6.42098 -1.75177 -5.06129
upperneck 28.5943 -2.8468 9.40302
head 7.96911 -0.483906 4.04206
rclavicle 8.74653e-015 -2.22639e-014
rhumerus 4.90327 3.85637 -75.7203
rradius 128.7
rwrist 17.2468
rhand 1.06866 -37.5682
rfingers 7.12502
rthumb 26.6136 -65.7178
lclavicle 8.74653e-015 -2.22639e-014
lhumerus 13.3949 -16.6398 63.7263
lradius 117.108
lwrist -25.4503
lhand 14.8544 -0.631305
lfingers 7.12502
lthumb 39.7146 24.6802
rfemur -53.0018 -13.9904 26.9351
rtibia 111.957
rfoot -1.07489 -9.27956
rtoes 18.1194
lfemur -72.912 75.979 22.4222
ltibia 157.466
lfoot -4.93532 -44.5985
ltoes 12.5468
